<?xml version="1.0"?>
<svg xmlns="http://www.w3.org/2000/svg" xmlns:xlink="http://www.w3.org/1999/xlink" xmlns:svgjs="http://svgjs.com/svgjs" version="1.1" width="512" height="512" x="0" y="0" viewBox="0 0 496.82 496.82" style="enable-background:new 0 0 512 512" xml:space="preserve" class=""><g><g xmlns="http://www.w3.org/2000/svg" fill="#fee45a"><path d="m188.79 167.002-43.311-62.391v-12.352h-30.108v12.352l-43.31 62.391v38.097h116.729z" fill="#ffbf00" data-original="#fee45a" style="" class=""/><path d="m424.759 167.002-43.31-62.391v-10.487h-30.108v10.487l-43.311 62.391v33.811h116.729z" fill="#ffbf00" data-original="#fee45a" style="" class=""/></g><g xmlns="http://www.w3.org/2000/svg"><g><path d="m16.737 129.528v48.882c0 27.708 9.136 54.642 25.994 76.632l1.224 1.597v18.498 14.188h408.909v-14.188-18.497l1.224-1.597c16.858-21.99 25.994-48.924 25.994-76.632v-48.882-20.303h-16.274l-4.569 20.303-26.481 29.589c-36.646 40.947-101.267 39.265-135.733-3.534l-32.12-39.885v-21.575h-32.99v21.575l-32.12 39.885c-34.466 42.799-99.087 44.481-135.733 3.534l-26.481-29.589v-22.019h-20.844z" fill="#ffef00" data-original="#fee97d" style="" class=""/></g></g><path xmlns="http://www.w3.org/2000/svg" d="m453.865 305.738 4.213 5.617c5.542 7.389 8.537 16.376 8.537 25.612v17.486 20.594h-436.268l.859-20.594v-17.486c0-9.236 2.996-18.223 8.537-25.612l4.213-5.617v-15.3h408.909z" fill="#ffef00" data-original="#fee97d" style="" class=""/><g xmlns="http://www.w3.org/2000/svg"><path d="m124.218 258.652c0-1.305-.43-2.573-1.224-3.609-16.059-20.948-25.091-46.385-25.913-72.701-12.205-4.914-23.548-12.642-33.019-23.225l-26.481-29.589v-22.02h-20.844v22.02 48.882c0 27.706 9.135 54.639 25.991 76.628l1.227 1.601v18.498 14.188h80.263v-14.188z" fill="#fedf30" data-original="#fedf30" style="" class=""/></g><path xmlns="http://www.w3.org/2000/svg" d="m111.468 336.966c0-9.236 2.996-18.223 8.537-25.612l4.212-5.617v-15.3h-80.261v15.3l-4.213 5.617c-5.542 7.389-8.537 16.376-8.537 25.612v17.486l-.859 20.594h80.263l.859-20.594v-17.486z" fill="#fedf30" data-original="#fedf30" style="" class=""/><g xmlns="http://www.w3.org/2000/svg"><path d="m477.399 435.814h-457.978c-10.55 0-19.103-8.553-19.103-19.103v-43.155c0-10.55 8.553-19.103 19.103-19.103h457.977c10.55 0 19.103 8.553 19.103 19.103v43.155c.001 10.55-8.552 19.103-19.102 19.103z" fill="#ffbf00" data-original="#fee45a" style="" class=""/><path d="m80.581 416.711v-43.155c0-10.55 8.553-19.103 19.103-19.103h-80.263c-10.55 0-19.103 8.553-19.103 19.103v43.155c0 10.55 8.553 19.103 19.103 19.103h80.263c-10.55 0-19.103-8.553-19.103-19.103z" fill="#fe9c02" data-original="#fed402" style="" class=""/><g fill="#99e6fc"><circle cx="248.41" cy="395.133" r="14.987" fill="#00c6ff" data-original="#99e6fc" style="" class=""/><circle cx="183.134" cy="395.133" r="14.987" fill="#00c6ff" data-original="#99e6fc" style="" class=""/><circle cx="117.858" cy="395.133" r="14.987" fill="#00c6ff" data-original="#99e6fc" style="" class=""/><circle cx="52.581" cy="395.133" r="14.987" fill="#00c6ff" data-original="#99e6fc" style="" class=""/><circle cx="313.686" cy="395.133" r="14.987" fill="#00c6ff" data-original="#99e6fc" style="" class=""/><circle cx="378.962" cy="395.133" r="14.987" fill="#00c6ff" data-original="#99e6fc" style="" class=""/><circle cx="444.239" cy="395.133" r="14.987" fill="#00c6ff" data-original="#99e6fc" style="" class=""/></g><path d="m462.677 305.738h-427.534c-6.752 0-12.226-5.474-12.226-12.226v-6.148c0-6.752 5.474-12.226 12.226-12.226h427.534c6.752 0 12.226 5.474 12.226 12.226v6.148c0 6.752-5.474 12.226-12.226 12.226z" fill="#ffbf00" data-original="#fee45a" style="" class=""/><path d="m106.113 293.512v-6.147c0-6.752 5.474-12.226 12.226-12.226h-83.196c-6.752 0-12.226 5.474-12.226 12.226v6.147c0 6.752 5.474 12.226 12.226 12.226h83.197c-6.753 0-12.227-5.474-12.227-12.226z" fill="#fe9c02" data-original="#fed402" style="" class=""/><circle cx="24.917" cy="104.611" fill="#ffbf00" r="24.917" data-original="#fee45a" style="" class=""/><circle cx="471.903" cy="104.611" fill="#ffbf00" r="24.917" data-original="#fee45a" style="" class=""/><circle cx="248.41" cy="89.339" fill="#ffbf00" r="28.333" data-original="#fee45a" style="" class=""/><path d="m245.346 237.144-18.149-15.45c-1.055-.898-1.663-2.214-1.663-3.599v-39.525c0-1.385.608-2.701 1.663-3.599l18.149-15.45c1.766-1.503 4.361-1.503 6.127 0l18.149 15.45c1.055.898 1.663 2.214 1.663 3.599v39.525c0 1.385-.608 2.701-1.663 3.599l-18.149 15.45c-1.765 1.503-4.361 1.503-6.127 0z" fill="#ff008d" data-original="#ed74b7" style="" class=""/><circle cx="75.087" cy="229.814" fill="#a700ff" r="12.385" data-original="#d9b1ee" style="" class=""/><circle cx="185.764" cy="229.814" fill="#a700ff" r="12.385" data-original="#d9b1ee" style="" class=""/><g><path d="m146.949 237.314h-33.048c-4.143 0-7.5-3.358-7.5-7.5s3.357-7.5 7.5-7.5h33.048c4.143 0 7.5 3.358 7.5 7.5s-3.357 7.5-7.5 7.5z" fill="#fe9c02" data-original="#fed402" style="" class=""/></g><circle cx="422.733" cy="229.814" fill="#a700ff" r="12.385" data-original="#d9b1ee" style="" class=""/><circle cx="312.056" cy="229.814" fill="#a700ff" r="12.385" data-original="#d9b1ee" style="" class=""/><g><path d="m383.919 237.314h-33.048c-4.143 0-7.5-3.358-7.5-7.5s3.357-7.5 7.5-7.5h33.048c4.143 0 7.5 3.358 7.5 7.5s-3.358 7.5-7.5 7.5z" fill="#fe9c02" data-original="#fed402" style="" class=""/></g><circle cx="130.425" cy="92.259" fill="#fe9c02" r="19.474" data-original="#fed402" style="" class=""/><circle cx="366.395" cy="92.259" fill="#fe9c02" r="19.474" data-original="#fed402" style="" class=""/></g></g></svg>
