<svg id="Capa_1" enable-background="new 0 0 507.938 507.938" height="512" viewBox="0 0 507.938 507.938" width="512" xmlns="http://www.w3.org/2000/svg"><g><g><path d="m37.514 210.993c0 15.513 12.621 28.134 28.134 28.134s28.133-12.621 28.133-28.134-12.621-28.134-28.133-28.134c-15.513 0-28.134 12.622-28.134 28.134zm28.135-13.253c7.308 0 13.252 5.945 13.252 13.253s-5.944 13.253-13.252 13.253-13.253-5.945-13.253-13.253 5.945-13.253 13.253-13.253z"/><path d="m507.938 208.579v-10.841c0-14.673-8.63-27.367-21.082-33.273 6.34-6.614 10.241-15.584 10.241-25.448v-10.841c0-20.293-16.509-36.801-36.802-36.801h-1.208c2.831-4.66 4.461-10.125 4.461-15.964v-19.797c0-17.008-13.836-30.845-30.845-30.845h-139.332c-24.309 0-47.455 7.645-66.94 22.108-9.22 6.844-20.896 10.614-32.879 10.614h-114.394c-4.11 0-7.44 3.331-7.44 7.44s3.33 7.44 7.44 7.44h37.258v184.971c0 .342-.278.62-.62.62h-100.295c-.342 0-.62-.279-.62-.62v-184.349c0-.342.278-.62.62-.62h28.935c4.11 0 7.44-3.331 7.44-7.44s-3.33-7.44-7.44-7.44h-28.935c-8.547-.002-15.501 6.953-15.501 15.5v184.351c0 8.548 6.954 15.501 15.501 15.501h100.295c8.547 0 15.501-6.954 15.501-15.501v-11.964h22.414c18.188 0 34.178 12.27 38.885 29.837l52.407 195.587c1.95 7.281 8.577 12.365 16.114 12.365 27.984 0 50.751-22.767 50.751-50.752v-42.091c0-4.109-3.33-7.44-7.44-7.44s-7.44 3.331-7.44 7.44v42.091c0 19.78-16.091 35.871-35.87 35.871-.814 0-1.529-.549-1.74-1.335l-52.408-195.588c-6.446-24.062-28.347-40.867-53.259-40.867h-22.414v-158.126h62.256c15.154 0 29.981-4.812 41.749-13.547 16.898-12.544 36.977-19.175 58.068-19.175h139.333c8.803 0 15.964 7.162 15.964 15.964v19.797c0 8.803-7.162 15.964-15.964 15.964-32.271 0-29.28 0-32.423 0-4.11 0-7.44 3.331-7.44 7.44s3.33 7.44 7.44 7.44h60.014c12.087 0 21.921 9.833 21.921 21.92v10.841c0 12.086-9.833 21.92-21.921 21.92h-60.014c-4.11 0-7.44 3.331-7.44 7.44s3.33 7.44 7.44 7.44h70.856c12.086 0 21.92 9.833 21.92 21.92v10.841c0 12.086-9.833 21.92-21.92 21.92h-70.856c-4.11 0-7.44 3.331-7.44 7.44s3.33 7.44 7.44 7.44h60.014c12.087 0 21.921 9.833 21.921 21.92v10.841c0 12.087-9.833 21.92-21.921 21.92h-128.646c-19.113 0-34.661 15.549-34.661 34.661v20.882c0 4.109 3.33 7.44 7.44 7.44s7.44-3.331 7.44-7.44v-20.882c0-10.907 8.873-19.78 19.78-19.78h128.647c20.293 0 36.802-16.509 36.802-36.801v-10.841c0-9.863-3.902-18.833-10.241-25.448 12.453-5.904 21.083-18.598 21.083-33.27z"/></g></g></svg>