<svg id="Capa_1" enable-background="new 0 0 512 512" height="512" viewBox="0 0 512 512" width="512" xmlns="http://www.w3.org/2000/svg"><g><path d="m332.402 249.802c-7.743 5.92 1.759 17.915 9.285 11.781 4.11-3.239 8.08-6.772 11.909-10.583h16.404c78.299 0 142-63.701 142-142 0-12.406-10.094-22.5-22.5-22.5h-71.142c.879-9.028 1.29-16.333 1.479-21.217 14.926-3.157 26.163-16.431 26.163-32.283 0-18.196-14.804-33-33-33h-314c-18.196 0-33 14.804-33 33 0 15.851 11.235 29.123 26.159 32.282.186 4.892.59 12.193 1.464 21.218h-71.123c-12.406 0-22.5 10.094-22.5 22.5 0 41.36 18.046 80.604 49.51 107.668 7.267 6.455 17.259-5.132 9.781-11.371-28.147-24.212-44.291-59.312-44.291-96.297 0-4.136 3.364-7.5 7.5-7.5h72.853c.635 4.744 1.392 9.766 2.29 15h-59.07c-4.435-.104-8.16 4.196-7.423 8.571 3.725 25.799 16.523 49.669 36.038 67.215 18.649 16.767 42.406 26.772 67.287 28.446 3.382 5.398 6.947 10.485 10.685 15.268h-3.16c-19.277 0-37.801-4.228-55.058-12.565-8.706-4.363-15.346 9.403-6.525 13.506 19.308 9.329 40.027 14.059 61.583 14.059h16.481c17.02 16.813 36.947 28.307 59.5 34.252-.196 24.802-3.916 43.114-11.376 55.896-8.584 14.704-22.356 21.852-42.105 21.852h-12.818c-15.816 0-28.682 12.866-28.682 28.682v26.318h-29.5c-15.163 0-27.5 12.337-27.5 27.5v39c0 15.163 12.337 27.5 27.5 27.5h325c15.163 0 27.5-12.337 27.5-27.5v-39c0-15.163-12.337-27.5-27.5-27.5h-31.5v-26.318c0-15.816-12.866-28.682-28.682-28.682h-12.818c-35.783 0-52.015-23.929-52.478-77.454 5.681-1.438 11.196-3.215 16.521-5.343 9.092-3.481 3.415-17.67-5.566-13.93-14.49 5.791-30.631 8.727-47.977 8.727-66.189 1.634-110.489-47.71-129.745-106.652-14.876-42.419-18.261-85.421-19.029-102.348h56.774c9.734.143 9.729-15.144 0-15h-65c-9.925 0-18-8.075-18-18s8.075-18 18-18h314c9.925 0 18 8.075 18 18s-8.075 18-18 18h-214.5c-9.734-.143-9.729 15.144 0 15h206.265c-1.355 29.068-10.531 135.076-72.363 183.802zm98.598 195.698v39c0 6.893-5.607 12.5-12.5 12.5h-325c-6.893 0-12.5-5.607-12.5-12.5v-39c0-6.893 5.607-12.5 12.5-12.5h325c6.893 0 12.5 5.607 12.5 12.5zm-59-53.818v26.318h-234v-26.318c0-7.544 6.138-13.682 13.682-13.682h206.637c7.543 0 13.681 6.138 13.681 13.682zm-93.951-103.204c.494 26.11 4.71 45.826 12.847 60.154 3.169 5.581 6.94 10.37 11.295 14.368h-94.091c4.396-3.98 8.221-8.744 11.459-14.291 8.494-14.553 12.888-34.345 13.39-60.387 7.435 1.111 15.119 1.678 23.051 1.678 7.553 0 14.91-.514 22.049-1.522zm-230.424-156.978h52.889c2.801 13.217 6.522 27.315 11.469 41.474 3.957 11.326 8.422 21.855 13.37 31.588-38.056-6.559-68.768-35.184-77.728-73.062zm441.875-30c4.136 0 7.5 3.364 7.5 7.5 0 70.028-56.972 127-127 127h-3.177c3.713-4.781 7.25-9.879 10.615-15.263 24.912-1.657 48.704-11.664 67.374-28.451 19.515-17.546 32.313-41.416 36.038-67.215.737-4.375-2.988-8.675-7.423-8.571h-59.097c.898-5.238 1.654-10.255 2.29-15zm-79.115 34.946c.375-1.663.73-3.309 1.076-4.946h52.915c-8.967 37.908-39.721 66.55-77.819 73.078 10.041-19.72 18.068-42.567 23.828-68.132z"/><path d="m325.259 141.82c-1.719-5.29-6.61-8.845-12.173-8.845h-34.311l-10.603-32.63c-3.33-11.584-21.016-11.581-24.346-.001l-10.603 32.631h-34.311c-12.045-.41-17.507 16.408-7.523 23.154l27.758 20.167-10.603 32.632c-4.112 11.329 10.197 21.72 19.696 14.31l27.76-20.167 27.758 20.167c9.502 7.412 23.808-2.984 19.696-14.31l-10.603-32.632 27.758-20.167c4.5-3.269 6.369-9.019 4.65-14.309zm-45.632 25.545c-2.629 1.909-3.729 5.295-2.725 8.385l10.193 31.373-26.688-19.39c-2.629-1.91-6.188-1.91-8.816 0l-26.688 19.39 10.193-31.373c1.004-3.09-.096-6.476-2.725-8.385l-26.687-19.39h32.987c3.249 0 6.129-2.092 7.133-5.183l10.196-31.371 10.193 31.372c1.004 3.091 3.884 5.183 7.133 5.183h32.987z"/><path d="m267.5 458h-103c-4.143 0-7.5 3.357-7.5 7.5s3.357 7.5 7.5 7.5h103c4.143 0 7.5-3.357 7.5-7.5s-3.357-7.5-7.5-7.5z"/><path d="m347.5 458h-45c-4.143 0-7.5 3.357-7.5 7.5s3.357 7.5 7.5 7.5h45c4.143 0 7.5-3.357 7.5-7.5s-3.357-7.5-7.5-7.5z"/></g></svg>